# xmcd
#
# Track frame offsets:
#	150
#	16604
#	33819
#	49844
#	65629
#	78137
#	92983
#	113231
#	132812
#	146462
#	162341
#	172413
#	188530
#	205764
#
# Disc length: 2921
#
# Revision: 1
# Processed by: cddbd v1.5.1PL0 Copyright (c) Steve Scherf et al.
# Submitted via: dBpowerAMP V4.0
# Normalized: r0:TRMNUM
#
DISCID=b50b670e
DTITLE=Os Mirins - Festa Campeira
DYEAR=1996
DGENRE=Country
TTITLE0=Vaneirinha da Solidão
TTITLE1=Entorta Braço
TTITLE2=Chalana
TTITLE3=Domingueira
TTITLE4=Prova de Amor
TTITLE5=Bola Nas "Costa"
TTITLE6=Sinfonia de Primavera
TTITLE7=Ranchinho
TTITLE8=Doce Carinho
TTITLE9=Gineteada no Uruguai
TTITLE10=Bombacha Estreita
TTITLE11=Maior Abandonado
TTITLE12=Respeito ao Gaúcho
TTITLE13=Galo Cego
EXTD=
EXTT0=
EXTT1=
EXTT2=
EXTT3=
EXTT4=
EXTT5=
EXTT6=
EXTT7=
EXTT8=
EXTT9=
EXTT10=
EXTT11=
EXTT12=
EXTT13=
PLAYORDER=
